# xmcd CD database file
#
# Track frame offsets:
#	150
#	16401
#	35327
#	54073
#	74739
#	95951
#	119278
#	142188
#	165857
#	179414
#	198129
#
# Disc length: 2818 seconds
#
# Revision: 1
# Processed by: cddbd v1.5.2PL0 Copyright (c) Steve Scherf et al.
# Submitted via: CDex 1.70beta2
#
DISCID=960b000b
DTITLE=La Excelencia - Mi Tumbao Social
DYEAR=2009
DGENRE=Salsa
TTITLE0=Salsa Dura
TTITLE1=Ahora Que Te Tengo Aqui
TTITLE2=Deja De Criticar
TTITLE3=Por Tu Traición
TTITLE4=Aña Pa' Mi Tambor
TTITLE5=American Sueño
TTITLE6=Duelo De Bongo
TTITLE7=Caminando
TTITLE8=Vendió Su Corazón
TTITLE9=Unidad
TTITLE10=Por Tu Traición (Bolero Version)
EXTD=YEAR: 2009
EXTT0=
EXTT1=
EXTT2=
EXTT3=
EXTT4=
EXTT5=
EXTT6=
EXTT7=
EXTT8=
EXTT9=
EXTT10=
PLAYORDER=
